<svg width="387.401" height="72.401" viewBox="0 0 387.401 72.401" xmlns="http://www.w3.org/2000/svg"><g id="svgGroup" stroke-linecap="round" fill-rule="evenodd" font-size="9pt" stroke="#000" stroke-width="0.25mm" fill="#000" style="stroke:#000;stroke-width:0.25mm;fill:#000"><path d="M 67.1 71.2 L 58.1 71.2 L 58.1 1.2 L 71.4 1.2 L 90.8 45.5 L 109.9 1.2 L 123.5 1.2 L 123.5 71.2 L 114 71.2 L 114 13.3 L 95.3 55.4 L 85.9 55.4 L 67.1 13.3 L 67.1 71.2 Z M 150.5 71.2 L 141.5 71.2 L 141.5 1.2 L 154.8 1.2 L 174.2 45.5 L 193.3 1.2 L 206.9 1.2 L 206.9 71.2 L 197.4 71.2 L 197.4 13.3 L 178.7 55.4 L 169.3 55.4 L 150.5 13.3 L 150.5 71.2 Z M 282.3 66.4 L 286.4 58.9 A 29.424 29.424 0 0 0 290.252 61.33 A 36.526 36.526 0 0 0 292.9 62.6 A 18.21 18.21 0 0 0 296.72 63.749 Q 298.567 64.102 300.69 64.179 A 33.313 33.313 0 0 0 301.9 64.2 Q 308.5 64.2 312.35 60.7 A 11.476 11.476 0 0 0 315.54 56.015 A 11.929 11.929 0 0 0 316.2 52 Q 316.2 48.3 314.2 45.25 Q 312.255 42.284 308.275 40.405 A 21.187 21.187 0 0 0 308.05 40.3 Q 304.843 38.832 300.174 38.499 A 40.356 40.356 0 0 0 297.3 38.4 L 291.7 38.4 L 291.7 31.1 L 296.9 31.1 A 31.908 31.908 0 0 0 300.956 30.858 Q 304.214 30.439 306.65 29.3 A 16.484 16.484 0 0 0 309.551 27.586 A 11.823 11.823 0 0 0 312.4 24.6 Q 314.3 21.7 314.3 18.5 A 10.072 10.072 0 0 0 313.571 14.611 A 9.418 9.418 0 0 0 310.75 10.9 A 12.755 12.755 0 0 0 304.196 8.139 A 16.888 16.888 0 0 0 302 8 Q 297.3 8 293.65 9.55 Q 290 11.1 287.7 13 L 284 5.9 A 32.63 32.63 0 0 1 286.489 4.407 Q 287.91 3.633 289.59 2.867 A 66.563 66.563 0 0 1 291.7 1.95 A 24.597 24.597 0 0 1 297.145 0.429 Q 299.747 0 302.7 0 Q 308.684 0 313.024 1.973 A 17.976 17.976 0 0 1 313.9 2.4 A 19.376 19.376 0 0 1 318.181 5.388 A 16.398 16.398 0 0 1 320.95 8.75 Q 323.4 12.7 323.4 17.3 A 19.531 19.531 0 0 1 322.875 21.94 A 14.587 14.587 0 0 1 320.45 27.2 A 19.553 19.553 0 0 1 316.083 31.457 A 26.455 26.455 0 0 1 312.1 33.8 A 24.812 24.812 0 0 1 317.558 36.653 A 19.796 19.796 0 0 1 321.95 40.85 A 17.3 17.3 0 0 1 325.497 51.314 A 21.406 21.406 0 0 1 325.5 51.7 Q 325.5 56.9 322.95 61.65 A 18.802 18.802 0 0 1 317.318 68.004 A 23.697 23.697 0 0 1 315.15 69.4 Q 310.641 71.977 304.029 72.341 A 40.608 40.608 0 0 1 301.8 72.4 A 40.712 40.712 0 0 1 296.438 72.065 Q 293.2 71.635 290.5 70.65 Q 285.7 68.9 282.3 66.4 Z M 344.4 67.2 L 349.1 59.5 A 28.895 28.895 0 0 0 354.877 62.679 A 32.164 32.164 0 0 0 355.3 62.85 Q 358.7 64.2 363 64.2 A 18.948 18.948 0 0 0 367.749 63.636 A 13.678 13.678 0 0 0 373.8 60.35 A 12.805 12.805 0 0 0 377.891 51.061 A 17.128 17.128 0 0 0 377.9 50.5 A 14.735 14.735 0 0 0 377.057 45.425 A 12.876 12.876 0 0 0 373.65 40.35 A 13.782 13.782 0 0 0 368.201 37.297 Q 365.265 36.4 361.5 36.4 L 349.1 36.4 L 349.1 1.2 L 383.7 1.2 L 383.7 9.3 L 357.6 9.3 L 357.6 28.3 L 362.6 28.3 A 37.701 37.701 0 0 1 368.781 28.781 Q 372.246 29.357 375.136 30.624 A 22.674 22.674 0 0 1 375.95 31 A 21.393 21.393 0 0 1 381.371 34.702 A 18.764 18.764 0 0 1 384.45 38.5 A 20.024 20.024 0 0 1 387.321 47.504 A 24.706 24.706 0 0 1 387.4 49.5 A 25.044 25.044 0 0 1 386.539 56.182 A 21.101 21.101 0 0 1 384.35 61.35 Q 381.3 66.5 375.8 69.45 A 24.425 24.425 0 0 1 368.183 71.986 A 32.353 32.353 0 0 1 362.9 72.4 A 46.433 46.433 0 0 1 358.224 72.178 Q 355.013 71.852 352.4 71.05 Q 348 69.7 344.4 67.2 Z M 265.5 71.2 L 230.3 71.2 L 230.3 63.2 L 244.6 63.2 L 244.6 12.7 L 231.2 22.8 L 226.3 16.1 L 247 1.2 L 253.6 1.2 L 253.6 63.2 L 265.5 63.2 L 265.5 71.2 Z M 9.5 71.2 L 0 71.2 L 0 1.4 Q 4.1 0.9 9.05 0.65 A 200.806 200.806 0 0 1 17.98 0.404 A 221.966 221.966 0 0 1 19.3 0.4 Q 26.87 0.4 32.472 2.482 A 26.011 26.011 0 0 1 34.1 3.15 A 24.606 24.606 0 0 1 39.182 6.179 A 19.374 19.374 0 0 1 43.4 10.7 Q 46.6 15.5 46.6 21.7 A 25.258 25.258 0 0 1 45.892 27.823 A 19.268 19.268 0 0 1 42.9 34.4 A 22.312 22.312 0 0 1 35.349 41.03 A 28.065 28.065 0 0 1 32.6 42.35 A 34.774 34.774 0 0 1 24.511 44.574 A 47.194 47.194 0 0 1 17.3 45.1 Q 13.1 45.1 9.5 44.8 L 9.5 71.2 Z M 9.5 8.8 L 9.5 36.7 Q 10.6 36.838 12.031 36.952 A 96.255 96.255 0 0 0 13.4 37.05 Q 15.7 37.2 18.5 37.2 A 31.831 31.831 0 0 0 23.88 36.775 Q 26.759 36.28 29.063 35.211 A 15.221 15.221 0 0 0 32.3 33.2 A 12.896 12.896 0 0 0 37.155 23.758 A 17.32 17.32 0 0 0 37.2 22.5 A 14.452 14.452 0 0 0 36.439 17.707 A 12.136 12.136 0 0 0 32.5 12.2 A 15.462 15.462 0 0 0 27.419 9.537 Q 25.193 8.827 22.5 8.56 A 34.58 34.58 0 0 0 19.1 8.4 A 131.125 131.125 0 0 0 15.842 8.439 A 109.939 109.939 0 0 0 14 8.5 A 91.274 91.274 0 0 0 11.117 8.664 A 75.041 75.041 0 0 0 9.5 8.8 Z" vector-effect="non-scaling-stroke"/></g></svg>